<svg xmlns="http://www.w3.org/2000/svg" width="50.188" height="50.189" viewBox="0 0 50.188 50.189"><g transform="translate(-79.712 0.095)"><g transform="translate(79.806 26.312)"><path d="M50.66,23.879c-15.421,0-25,8.021-25,21.015a2.653,2.653,0,0,0,2.632,2.674H73.029a2.653,2.653,0,0,0,2.632-2.674C75.66,31.927,66.081,23.879,50.66,23.879ZM31.108,42.22c1.737-12,15.237-12.994,19.553-12.994s17.816.989,19.553,12.994Z" transform="translate(-25.66 -23.879)" fill="#1e90ff" stroke="#707070" stroke-width="0.189"/></g><g transform="translate(92.106 0)"><path d="M45.53,8.03a12.7,12.7,0,1,0,12.7,12.7A12.7,12.7,0,0,0,45.53,8.03Zm0,20.052a7.352,7.352,0,1,1,7.352-7.352A7.353,7.353,0,0,1,45.53,28.082Z" transform="translate(-32.83 -8.03)" fill="#1e90ff" stroke="#707070" stroke-width="0.189"/></g></g></svg>