<svg xmlns="http://www.w3.org/2000/svg" width="50.633" height="32.171" viewBox="0 0 50.633 32.171">
  <g id="Group_24" data-name="Group 24" transform="translate(-0.001 0)">
    <path id="Path_46" data-name="Path 46" d="M504.83,358.274a5.194,5.194,0,0,1-2.993,6.7l-.144.048a5.194,5.194,0,0,1-6.7-2.993L488.5,345.151a5.194,5.194,0,0,1,2.993-6.7l.144-.048a5.194,5.194,0,0,1,6.7,2.993Z" transform="translate(-488.152 -333.202)" fill="#fff"/>
    <path id="Path_47" data-name="Path 47" d="M595.116,317.8h-12.5a5.217,5.217,0,0,0-4.861,3.328l-2.371,6.154h0L569.4,342.871a5.194,5.194,0,0,0,2.993,6.7l.144.048a5.194,5.194,0,0,0,6.7-2.993l6.489-16.882a22.449,22.449,0,0,0,.766-2.251h8.621a5.025,5.025,0,0,0,5.2-4.789v-.144A5.007,5.007,0,0,0,595.116,317.8Z" transform="translate(-549.68 -317.8)" fill="#fff"/>
    <path id="Path_48" data-name="Path 48" d="M558.73,358.274a5.194,5.194,0,0,1-2.993,6.7l-.144.048a5.194,5.194,0,0,1-6.7-2.993L542.4,345.151a5.194,5.194,0,0,1,2.993-6.7l.144-.048a5.194,5.194,0,0,1,6.7,2.993Z" transform="translate(-529.145 -333.202)" fill="#fff" opacity="0.4"/>
    <path id="Path_49" data-name="Path 49" d="M552.316,345.288,547.407,358.1,542.5,345.288a5.194,5.194,0,0,1,2.993-6.7l.144-.048a4.85,4.85,0,0,1,3.544,0l.144.048A5.176,5.176,0,0,1,552.316,345.288Z" transform="translate(-529.221 -333.315)" fill="#fff"/>
    <path id="Path_50" data-name="Path 50" d="M515.4,358.274a5.194,5.194,0,0,0,2.993,6.7l.144.048a5.194,5.194,0,0,0,6.7-2.993l6.489-16.882a5.194,5.194,0,0,0-2.993-6.7l-.144-.048a5.194,5.194,0,0,0-6.7,2.993Z" transform="translate(-508.61 -333.202)" fill="#fff" opacity="0.3"/>
  </g>
</svg>
